<svg width="87" height="98" viewBox="0 0 87 98" fill="none" xmlns="http://www.w3.org/2000/svg">
<path d="M1.81231 0C0.811384 0 0 0.811571 0 1.81269V96.0631C0 97.064 0.811384 97.8757 1.81231 97.8757H65.2784C65.7785 97.8757 66.2314 97.6732 66.5594 97.3456C67.8785 97.6909 69.2619 97.8754 70.6877 97.8754C79.6825 97.8754 87 90.5578 87 81.5631C87 74.4672 82.4456 68.416 76.1067 66.1767C76.1466 52.788 76.1254 39.3425 76.1254 25.9339C76.1254 25.4392 75.923 24.966 75.565 24.6238L50.3318 0.502181C49.9948 0.180073 49.5458 0 49.0796 0H1.81231ZM3.62463 3.625H47.125V27.1877C47.125 28.1886 47.9366 29 48.9377 29H72.5V65.3512C71.9048 65.2851 71.3003 65.25 70.6877 65.25C61.6929 65.25 54.375 72.5679 54.375 81.5627C54.375 86.6829 56.7484 91.2574 60.4504 94.2504H3.62463V3.625ZM50.75 5.91671L71.1047 25.375H50.75V5.91671ZM29.1109 34.4414C28.7868 34.4216 28.4575 34.4888 28.1588 34.6449C27.5618 34.9578 27.1877 35.5765 27.1877 36.2504V68.8754C27.1877 69.5492 27.5618 70.1679 28.1588 70.4808C28.4234 70.6193 28.7119 70.6877 29 70.6877C29.3619 70.6877 29.7231 70.5796 30.0316 70.3659L53.5939 54.0532C54.0833 53.7146 54.375 53.1578 54.375 52.5631C54.375 51.9682 54.0833 51.4111 53.5939 51.0726L30.0316 34.7599C29.7541 34.5681 29.435 34.4613 29.1109 34.4414ZM30.8127 39.7092L49.3783 52.5627L30.8127 65.4162V39.7092ZM70.6877 68.8754C77.6837 68.8754 83.375 74.5671 83.375 81.5631C83.3752 88.559 77.6839 94.2504 70.6877 94.2504C63.6917 94.2504 58 88.559 58 81.5631C58 74.5671 63.6917 68.8754 70.6877 68.8754ZM70.6877 72.5004C69.6866 72.5004 68.875 73.3118 68.875 74.3127V79.7504H63.4377C62.4368 79.7504 61.625 80.5619 61.625 81.5631C61.625 82.5642 62.4366 83.3754 63.4377 83.3754H68.875V88.8127C68.875 89.8136 69.6866 90.6254 70.6877 90.6254C71.6888 90.6254 72.5 89.8138 72.5 88.8127V83.3754H77.9377C78.9386 83.3754 79.7504 82.564 79.7504 81.5631C79.7504 80.5621 78.9386 79.7504 77.9377 79.7504H72.5V74.3127C72.5 73.3118 71.6888 72.5004 70.6877 72.5004Z" fill="black"/>
</svg>
