<svg width="72" height="89" viewBox="0 0 72 89" fill="none" xmlns="http://www.w3.org/2000/svg">
<path d="M8.46702 24.215C7.08002 24.215 5.95502 25.34 5.95502 26.729V86.256C5.95502 87.643 7.08002 88.768 8.46702 88.768H55.041C61.018 88.768 65.879 83.909 65.879 77.936V26.731C65.879 25.344 64.754 24.219 63.365 24.219C61.978 24.219 60.853 25.344 60.853 26.731V77.936C60.853 81.139 58.246 83.743 55.04 83.743H10.981V26.729C10.981 25.34 9.85602 24.215 8.46702 24.215Z" fill="black"/>
<path d="M71.83 14.99C71.83 13.603 70.705 12.478 69.318 12.478H49.44V2.512C49.44 1.125 48.315 0 46.926 0H24.903C23.516 0 22.391 1.125 22.391 2.512V12.479H2.514C1.125 12.479 0 13.604 0 14.991C0 16.38 1.125 17.505 2.514 17.505H24.883C24.891 17.505 24.897 17.507 24.903 17.507H46.926C46.934 17.507 46.94 17.505 46.946 17.505H69.319C70.705 17.504 71.83 16.379 71.83 14.99ZM27.416 5.026H44.414V12.479H27.416V5.026Z" fill="black"/>
<path d="M25.92 73.776V32.748C25.92 31.359 24.795 30.234 23.408 30.234C22.019 30.234 20.894 31.359 20.894 32.748V73.775C20.894 75.162 22.019 76.287 23.408 76.287C24.795 76.287 25.92 75.162 25.92 73.776Z" fill="black"/>
<path d="M38.428 73.776V32.748C38.428 31.359 37.303 30.234 35.914 30.234C34.527 30.234 33.402 31.359 33.402 32.748V73.775C33.402 75.162 34.527 76.287 35.914 76.287C37.303 76.287 38.428 75.162 38.428 73.776Z" fill="black"/>
<path d="M50.934 73.776V32.748C50.934 31.359 49.809 30.234 48.422 30.234C47.033 30.234 45.908 31.359 45.908 32.748V73.775C45.908 75.162 47.033 76.287 48.422 76.287C49.809 76.287 50.934 75.162 50.934 73.776Z" fill="black"/>
</svg>
