<svg width="88" height="88" viewBox="0 0 88 88" fill="none" xmlns="http://www.w3.org/2000/svg">
<path d="M85.719 51.344C84.6331 50.5705 83.1799 50.5705 82.094 51.344C73.6526 57.7698 62.528 59.4729 52.547 55.8674C42.5704 52.258 35.102 43.8364 32.719 33.5004C30.4417 23.6215 33.0979 13.2544 39.844 5.68839C40.6995 4.67669 40.8245 3.23919 40.1565 2.09459C39.4846 0.887586 38.0979 0.266486 36.7503 0.563386L34.8128 0.938386C20.5708 4.03219 8.8048 14.0164 3.4298 27.5674C-1.9413 41.1144 -0.210799 56.4504 8.0431 68.4654C16.2931 80.4774 29.9881 87.5904 44.5631 87.4384C47.9069 87.4345 51.2389 87.0556 54.5006 86.3134C62.2858 84.5165 69.4306 80.622 75.1606 75.0514C80.8911 69.485 84.9848 62.4494 87.0006 54.7194C87.3326 53.4382 86.8166 52.0823 85.719 51.344ZM53.094 80.219C40.801 83.0628 27.906 79.5315 18.774 70.8284C9.6412 62.1253 5.497 49.4144 7.747 37.0004C9.9931 24.5864 18.333 14.1374 29.938 9.18839C25.4771 17.7079 24.4575 27.6144 27.0942 36.8644C29.727 46.1144 35.8169 53.9974 44.0982 58.8844C52.3794 63.7711 62.2232 65.2906 71.5942 63.1266C73.7348 62.6305 75.8286 61.9391 77.8442 61.0641C72.7817 70.7516 63.7422 77.7481 53.0942 80.2201L53.094 80.219Z" fill="black"/>
</svg>
