<svg width="167" height="174" viewBox="0 0 167 174" fill="none" xmlns="http://www.w3.org/2000/svg">
<path d="M123.912 91.9866L120.475 89.6498C120.152 89.4302 120.166 88.958 120.495 88.7518L127.472 84.5204C127.811 84.3208 127.812 83.8398 127.492 83.6224L70.1288 44.6191C69.8058 44.3995 69.3718 44.5862 69.3011 44.9681L67.9323 53.0121C67.8713 53.4005 67.4244 53.5785 67.1046 53.3611L63.6675 51.0244C63.4188 50.8552 63.0932 50.9173 62.9241 51.166L50.9987 68.7072C50.8362 68.9462 50.8916 69.2815 51.1404 69.4506L54.5775 71.7873C54.9005 72.007 54.8865 72.4792 54.5574 72.6853L47.5806 76.9168C47.2419 77.1164 47.2407 77.5974 47.5606 77.8148L104.936 116.822C105.259 117.041 105.693 116.854 105.763 116.473L107.123 108.422C107.184 108.034 107.63 107.856 107.95 108.073L111.387 110.41C111.636 110.579 111.962 110.517 112.131 110.268L124.056 92.727C124.219 92.4879 124.151 92.1491 123.912 91.9866ZM111.635 99.2134L107.465 96.3781L105.747 98.9043C105.266 99.6118 104.311 99.7938 103.604 99.3128C102.896 98.8319 102.714 97.8768 103.195 97.1693L104.912 94.6431L97.6538 89.7083L95.9364 92.2344C95.4554 92.9419 94.5003 93.1239 93.7928 92.643C93.0854 92.162 92.9033 91.2069 93.3843 90.4994L95.1017 87.9732L90.563 84.8876C88.8717 86.2081 86.4597 86.3584 84.5861 85.0847C82.7125 83.8109 81.9597 81.5136 82.571 79.4542L78.0323 76.3685L76.3149 78.8947C75.8339 79.6022 74.8788 79.7842 74.1713 79.3032C73.4638 78.8222 73.2818 77.8672 73.7628 77.1597L75.4803 74.6335L68.2216 69.6986L66.5041 72.2248C66.0232 72.9323 65.0681 73.1143 64.3606 72.6333C63.6531 72.1524 63.4711 71.1973 63.9521 70.4898L65.6695 67.9636L61.4668 65.1064C60.7593 64.6254 60.5773 63.6703 61.0583 62.9628C61.5392 62.2554 62.4943 62.0733 63.2018 62.5543L67.3723 65.3896L69.0897 62.8634C69.5707 62.156 70.5258 61.9739 71.2333 62.4549C71.9407 62.9359 72.1228 63.891 71.6418 64.5985L69.9244 67.1246L77.183 72.0595L78.9005 69.5333C79.3814 68.8258 80.3365 68.6438 81.044 69.1248C81.7515 69.6058 81.9335 70.5609 81.4525 71.2683L79.7351 73.7945L84.2738 76.8802C85.9652 75.5596 88.3771 75.4093 90.2508 76.6831C92.1244 77.9569 92.8771 80.2541 92.2658 82.3136L96.8045 85.3992L98.522 82.873C99.0029 82.1656 99.958 81.9835 100.666 82.4645C101.373 82.9455 101.555 83.9006 101.074 84.6081L99.3566 87.1343L106.615 92.0691L108.333 89.5429C108.814 88.8355 109.769 88.6534 110.476 89.1344C111.184 89.6154 111.366 90.5705 110.885 91.2779L109.167 93.8041L113.338 96.6394C114.045 97.1204 114.227 98.0755 113.746 98.783C113.303 99.5114 112.342 99.6944 111.635 99.2134Z" fill="#AEAEAE"/>
</svg>
