<svg width="110" height="135" viewBox="0 0 110 135" fill="none" xmlns="http://www.w3.org/2000/svg">
<path d="M55 35C41.219 35 30 46.219 30 60C30 73.781 41.219 85 55 85C68.781 85 80 73.781 80 60C80 46.219 68.781 35 55 35ZM55 78.75C44.656 78.75 36.25 70.3438 36.25 60C36.25 49.6562 44.6562 41.25 55 41.25C65.3438 41.25 73.75 49.6562 73.75 60C73.75 70.3438 65.3438 78.75 55 78.75Z" fill="white"/>
<path d="M55 28.75C56.7188 28.75 58.125 27.3438 58.125 25.625V19.375C58.125 17.6562 56.7188 16.25 55 16.25C53.2812 16.25 51.875 17.6562 51.875 19.375V25.625C51.875 27.3438 53.2812 28.75 55 28.75Z" fill="white"/>
<path d="M28.469 37.906C29.6878 39.1248 31.6565 39.1248 32.8752 37.906C34.0939 36.6872 34.094 34.7185 32.8752 33.4998L28.469 29.0936C27.2502 27.8748 25.2815 27.8748 24.0628 29.0936C22.8441 30.3124 22.844 32.2811 24.0628 33.4998L28.469 37.906Z" fill="white"/>
<path d="M20.625 56.875H14.375C12.6562 56.875 11.25 58.2812 11.25 60C11.25 61.7188 12.6562 63.125 14.375 63.125H20.625C22.3438 63.125 23.75 61.7188 23.75 60C23.75 58.2812 22.3438 56.875 20.625 56.875Z" fill="white"/>
<path d="M28.469 82.094L24.0628 86.5002C22.844 87.719 22.844 89.6877 24.0628 90.9064C25.2816 92.1251 27.2503 92.1252 28.469 90.9064L32.8752 86.5002C34.094 85.2814 34.094 83.3127 32.8752 82.094C31.6564 80.8753 29.6877 80.8752 28.469 82.094Z" fill="white"/>
<path d="M55 91.25C53.2812 91.25 51.875 92.6562 51.875 94.375V100.625C51.875 102.344 53.2812 103.75 55 103.75C56.7188 103.75 58.125 102.344 58.125 100.625V94.375C58.125 92.6562 56.7188 91.25 55 91.25Z" fill="white"/>
<path d="M81.531 82.094C80.3122 80.8752 78.3435 80.8752 77.1248 82.094C75.9061 83.3128 75.906 85.2815 77.1248 86.5002L81.531 90.9064C82.7498 92.1252 84.7185 92.1252 85.9372 90.9064C87.1559 89.6876 87.156 87.7189 85.9372 86.5002L81.531 82.094Z" fill="white"/>
<path d="M95.625 56.875H89.375C87.6562 56.875 86.25 58.2812 86.25 60C86.25 61.7188 87.6562 63.125 89.375 63.125H95.625C97.3438 63.125 98.75 61.7188 98.75 60C98.75 58.2812 97.3438 56.875 95.625 56.875Z" fill="white"/>
<path d="M81.531 37.906L85.9372 33.4998C87.156 32.281 87.156 30.3123 85.9372 29.0936C84.7184 27.8749 82.7497 27.8748 81.531 29.0936L77.1248 33.4998C75.906 34.7186 75.906 36.6873 77.1248 37.906C78.3436 39.1247 80.3123 39.1248 81.531 37.906Z" fill="white"/>
</svg>
